<?xml version="1.0" encoding="utf-8"?>
<!-- Generator: Adobe Illustrator 17.1.0, SVG Export Plug-In . SVG Version: 6.00 Build 0)  -->
<!DOCTYPE svg PUBLIC "-//W3C//DTD SVG 1.1//EN" "http://www.w3.org/Graphics/SVG/1.1/DTD/svg11.dtd" [
	<!ENTITY ns_flows "http://ns.adobe.com/Flows/1.0/">
	<!ENTITY ns_extend "http://ns.adobe.com/Extensibility/1.0/">
	<!ENTITY ns_ai "http://ns.adobe.com/AdobeIllustrator/10.0/">
	<!ENTITY ns_graphs "http://ns.adobe.com/Graphs/1.0/">
]>
<svg version="1.1" id="Layer_1" xmlns:x="&ns_extend;" xmlns:i="&ns_ai;" xmlns:graph="&ns_graphs;"
	 xmlns="http://www.w3.org/2000/svg" xmlns:xlink="http://www.w3.org/1999/xlink" xmlns:a="http://ns.adobe.com/AdobeSVGViewerExtensions/3.0/"
	 x="0px" y="0px" viewBox="0 0 72 72" enable-background="new 0 0 72 72" xml:space="preserve">
<g id="Layer_6">
	<polygon fill="#010101" points="23.7,43.9 50.3,43.9 58,24.8 23.9,24.8 21.2,18.1 13.5,18.1 13.5,21.9 18.7,21.9 19.9,24.8 
		19.8,24.8 	"/>
	<path fill="#010101" d="M26.6,46.4c-2.1,0-3.8,1.7-3.8,3.8c0,2.1,1.7,3.8,3.8,3.8c2.1,0,3.8-1.7,3.8-3.8
		C30.4,48.1,28.7,46.4,26.6,46.4z"/>
	<path fill="#010101" d="M46.8,46.4c2.1,0,3.8,1.7,3.8,3.8c0,2.1-1.7,3.8-3.8,3.8c-2.1,0-3.8-1.7-3.8-3.8
		C43,48.1,44.7,46.4,46.8,46.4z"/>
</g>
</svg>
